{"title":"Pitch Perfect 2 2015 720p BR AC3 5.1 EN-NL-SUB x264-[MULVAcoded]","uid":12196530,"size":1543239593,"categoryP":"video","categoryS":"hd___movies","magnet":"?xt=urn:btih:782772d2ff2e716156f31c529717574a5dcedbba&amp;dn=Pitch+Perfect+2+2015+720p+BR+AC3+5.1+EN-NL-SUB+x264-%5BMULVAcoded%5D&amp;tr=udp%3A%2F%2Ftracker.openbittorrent.com%3A80&amp;tr=udp%3A%2F%2Fopen.demonii.com%3A1337&amp;tr=udp%3A%2F%2Ftracker.coppersurfer.tk%3A6969&amp;tr=udp%3A%2F%2Fexodus.desync.com%3A6969","seeders":6,"leechers":1,"uploader":"Mulva1989","files":2,"time":1438752293,"description":"Pitch Perfect 2 2015 720p BRrip AC3 5.1 EN-NL-SUB x264-[MULVAcoded]\n\nAfter a humiliating command performance at Lincoln Center, the Barden Bellas enter an international competition that no American group has ever won in order to regain their status and right to perform.\n\nScreens @ &lt;a href=&quot;\nhttps://yuq.me/users/50/321/CxQasSGZ5K.jpg&quot; rel=&quot;nofollow&quot; target=&quot;_NEW&quot;&gt;\nhttps://yuq.me/users/50/321/CxQasSGZ5K.jpg&lt;/a&gt; &lt;a href=&quot;\nhttps://yuq.me/users/50/321/fUte6WxiDM.jpg&quot; rel=&quot;nofollow&quot; target=&quot;_NEW&quot;&gt;\nhttps://yuq.me/users/50/321/fUte6WxiDM.jpg&lt;/a&gt; &lt;a href=&quot;\nhttps://yuq.me/users/50/321/40o2yC9TEl.jpg&quot; rel=&quot;nofollow&quot; target=&quot;_NEW&quot;&gt;\nhttps://yuq.me/users/50/321/40o2yC9TEl.jpg&lt;/a&gt;\n\nFormat : Matroska\nFormat version : Version 4 / Version 2\nFile size : 1.44 GiB\nDuration : 1h 54mn\nOverall bit rate : 1 793 Kbps\nEncoded date : UTC 2015-08-05 03:00:24\nWriting application : mkvmerge v7.9.0 ('Birds') 64bit\nWriting library : libebml v1.3.1 + libmatroska v1.4.2\n_STATISTICS_WRITING_APP : mkvmerge v7.9.0 ('Birds') 64bit\n_STATISTICS_WRITING_DATE_UT : 2015-08-05 03:00:24\n_STATISTICS_TAGS : BPS DURATION NUMBER_OF_FRAMES NUMBER_OF_BYTES\nDURATION : 01:45:30.103000000\nNUMBER_OF_FRAMES : 1195\nNUMBER_OF_BYTES : 44290\n\nVideo\nID : 1\nFormat : AVC\nFormat/Info : Advanced Video Codec\nFormat profile : &lt;a class=&quot;__cf_email__&quot; href=&quot;/cdn-cgi/l/email-protection&quot; data-cfemail=&quot;1c54757b745c5029322c&quot;&gt;[email&amp;#160;protected]&lt;/a&gt;&lt;script data-cfhash='f9e31' type=&quot;text/javascript&quot;&gt;\n/* &lt;![CDATA[ */!function(){try{var t=&quot;currentScript&quot;in document?document.currentScript:function(){for(var t=document.getElementsByTagName(&quot;script&quot;),e=t.length;e--;)if(t[e].getAttribute(&quot;data-cfhash&quot;))return t[e]}();if(t&amp;&amp;t.previousSibling){var e,r,n,i,c=t.previousSibling,a=c.getAttribute(&quot;data-cfemail&quot;);if(a){for(e=&quot;&quot;,r=parseInt(a.substr(0,2),16),n=2;a.length-n;n+=2)i=parseInt(a.substr(n,2),16)^r,e+=String.fromCharCode(i);e=document.createTextNode(e),c.parentNode.replaceChild(e,c)}t.parentNode.removeChild(t);}}catch(u){}}()/* ]]&gt; */&lt;/script&gt;\nFormat settings, CABAC : Yes\nFormat settings, ReFrames : 16 frames\nCodec ID : V_MPEG4/ISO/AVC\nDuration : 1h 54mn\nBit rate : 1 501 Kbps\nWidth : 1 280 pixels\nHeight : 696 pixels\nDisplay aspect ratio : 1.85:1\nFrame rate mode : Constant\nFrame rate : 23.976 fps\nColor space : YUV\nChroma subsampling : 4:2:0\nBit depth : 8 bits\nScan type : Progressive\nBits/(Pixel*Frame) : 0.070\nStream size : 1.20 GiB (84%)\nWriting library : x264 core 130 r2273 b3065e6\nEncoding settings : cabac=1 / ref=16 / deblock=1:0:0 / analyse=0x3:0x113 / me=umh / subme=8 / psy=1 / psy_rd=1.00:0.00 / mixed_ref=1 / me_range=16 / chroma_me=1 / trellis=1 / 8x8dct=1 / cqm=0 / deadzone=21,11 / fast_pskip=1 / chroma_qp_offset=-2 / threads=6 / lookahead_threads=3 / sliced_threads=0 / nr=0 / decimate=1 / interlaced=0 / bluray_compat=0 / constrained_intra=0 / bframes=16 / b_pyramid=2 / b_adapt=2 / b_bias=0 / direct=3 / weightb=1 / open_gop=0 / weightp=2 / keyint=240 / keyint_min=24 / scenecut=40 / intra_refresh=0 / rc_lookahead=50 / rc=crf / mbtree=1 / crf=25.0 / qcomp=0.60 / qpmin=0 / qpmax=69 / qpstep=4 / ip_ratio=1.40 / aq=1:1.00\nLanguage : English\nDefault : Yes\nForced : No\nColor primaries : BT.709\nTransfer characteristics : BT.709\nMatrix coefficients : BT.709\nColor range : Limited\n\nAudio\nID : 2\nFormat : AC-3\nFormat/Info : Audio Coding 3\nMode extension : CM (complete main)\nFormat settings, Endianness : Big\nCodec ID : A_AC3\nDuration : 1h 54mn\nBit rate mode : Constant\nBit rate : 256 Kbps\nChannel(s) : 6 channels\nChannel positions : Front: L C R, Side: L R, LFE\nSampling rate : 48.0 KHz\nBit depth : 16 bits\nCompression mode : Lossy\nStream size : 210 MiB (14%)\nLanguage : English\nDefault : Yes\nForced : No\n\nText #1\nID : 3\nFormat : VobSub\nMuxing mode : zlib\nCodec ID : S_VOBSUB\nCodec ID/Info : The same subtitle format used on DVDs\nLanguage : English\nDefault : Yes\nForced : No\n\nText #2\nID : 4\nFormat : UTF-8\nCodec ID : S_TEXT/UTF8\nCodec ID/Info : UTF-8 Plain Text\nLanguage : Dutch\nDefault : No\nForced : No\n\nMenu\n00:00:00.000 : en:00:00:00.000\n00:05:49.307 : en:00:05:49.307\n00:10:14.614 : en:00:10:14.614\n00:15:28.845 : en:00:15:28.845\n00:19:17.990 : en:00:19:17.990\n00:26:57.449 : en:00:26:57.449\n00:31:53.829 : en:00:31:53.829\n00:38:59.712 : en:00:38:59.712\n00:46:11.477 : en:00:46:11.477\n00:53:20.697 : en:00:53:20.697\n00:58:35.470 : en:00:58:35.470\n01:02:51.393 : en:01:02:51.393\n01:08:34.193 : en:01:08:34.193\n01:12:25.091 : en:01:12:25.091\n01:17:20.511 : en:01:17:20.511\n01:22:42.291 : en:01:22:42.291\n01:28:15.415 : en:01:28:15.415\n01:34:27.453 : en:01:34:27.453\n01:38:42.917 : en:01:38:42.917\n01:45:49.385 : en:01:45:49.385","torrent":{"xt":"urn:btih:782772d2ff2e716156f31c529717574a5dcedbba","amp;dn":"Pitch+Perfect+2+2015+720p+BR+AC3+5.1+EN-NL-SUB+x264-%5BMULVAcoded%5D","amp;tr":["udp%3A%2F%2Ftracker.openbittorrent.com%3A80","udp%3A%2F%2Fopen.demonii.com%3A1337","udp%3A%2F%2Ftracker.coppersurfer.tk%3A6969","udp%3A%2F%2Fexodus.desync.com%3A6969"],"infoHash":"782772d2ff2e716156f31c529717574a5dcedbba","infoHashBuffer":{"type":"Buffer","data":[120,39,114,210,255,46,113,97,86,243,28,82,151,23,87,74,93,206,219,186]},"announce":[],"urlList":[]}}